<svg width="24" height="24" viewBox="0 0 24 24" fill="none" xmlns="http://www.w3.org/2000/svg">
<path fill-rule="evenodd" clip-rule="evenodd" d="M11.7808 2.00029C14.3947 2.00029 16.554 3.99195 16.8202 6.53922L16.8945 6.54009C18.3445 6.54009 20.1075 7.50309 20.7025 10.2041L21.4915 16.3111C21.7745 18.2821 21.4205 19.8631 20.4375 20.9971C19.4595 22.1251 17.9115 22.7221 15.9605 22.7221H7.61253C5.46953 22.7221 3.97653 22.1971 3.04753 21.1181C2.11453 20.0361 1.80253 18.4131 2.12053 16.2951L2.89653 10.2691C3.40653 7.50609 5.27153 6.54009 6.71553 6.54009C6.84019 5.39057 7.35853 4.297 8.18083 3.47729C9.12583 2.53829 10.4288 2.00029 11.7598 2.00029H11.7808ZM16.8945 8.04009H6.71553C6.27453 8.04009 4.80053 8.21809 4.37753 10.5021L3.60553 16.5021C3.35453 18.1851 3.54853 19.4031 4.18353 20.1401C4.81053 20.8681 5.93253 21.2221 7.61253 21.2221H15.9605C17.0085 21.2221 18.4395 21.0131 19.3035 20.0151C19.9895 19.2241 20.2255 18.0461 20.0055 16.5131L19.2265 10.4611C18.8945 8.97009 18.0185 8.04009 16.8945 8.04009ZM14.6973 10.8242C15.1113 10.8242 15.4703 11.1602 15.4703 11.5742C15.4703 11.9882 15.1573 12.3242 14.7433 12.3242H14.6973C14.2833 12.3242 13.9473 11.9882 13.9473 11.5742C13.9473 11.1602 14.2833 10.8242 14.6973 10.8242ZM8.86723 10.8242C9.28123 10.8242 9.64023 11.1602 9.64023 11.5742C9.64023 11.9882 9.32623 12.3242 8.91223 12.3242H8.86723C8.45323 12.3242 8.11723 11.9882 8.11723 11.5742C8.11723 11.1602 8.45323 10.8242 8.86723 10.8242ZM11.7778 3.50029H11.7628C10.8218 3.50029 9.90483 3.87929 9.23983 4.54029C8.69813 5.07956 8.34385 5.78849 8.22924 6.53963L15.3085 6.53991C15.0516 4.82167 13.5657 3.50029 11.7778 3.50029Z" fill="#181725"/>
</svg>
