<svg width="24" height="24" viewBox="0 0 24 24" fill="none" xmlns="http://www.w3.org/2000/svg">
<path d="M7.91988 13.4697C9.32988 13.4697 10.4599 14.6107 10.4599 16.0307V19.4397C10.4599 20.8497 9.32988 21.9997 7.91988 21.9997H4.53988C3.13988 21.9997 1.99988 20.8497 1.99988 19.4397V16.0307C1.99988 14.6107 3.13988 13.4697 4.53988 13.4697H7.91988ZM19.46 13.4697C20.86 13.4697 22 14.6107 22 16.0307V19.4397C22 20.8497 20.86 21.9997 19.46 21.9997H16.08C14.67 21.9997 13.54 20.8497 13.54 19.4397V16.0307C13.54 14.6107 14.67 13.4697 16.08 13.4697H19.46ZM7.91988 2C9.32988 2 10.4599 3.15 10.4599 4.561V7.97C10.4599 9.39 9.32988 10.53 7.91988 10.53H4.53988C3.13988 10.53 1.99988 9.39 1.99988 7.97V4.561C1.99988 3.15 3.13988 2 4.53988 2H7.91988ZM19.46 2C20.86 2 22 3.15 22 4.561V7.97C22 9.39 20.86 10.53 19.46 10.53H16.08C14.67 10.53 13.54 9.39 13.54 7.97V4.561C13.54 3.15 14.67 2 16.08 2H19.46Z" fill="white"/>
</svg>
