<svg width="145" height="39" viewBox="0 0 145 39" fill="none" xmlns="http://www.w3.org/2000/svg">
<path d="M59.1972 30.2822H56.721L52 9H54.9381L57.9756 23.4472L61.013 9H63.9841L59.1972 30.2822ZM67.1205 30.2822V9H70.0586V30.2822H67.1205ZM76.9586 30.2822V11.6562H72.9638V9H83.9246V11.6562H79.9297V30.2822H76.9586ZM92.4092 14.4745L90.4281 23.7062H94.357L92.4092 14.4745ZM85.9383 30.2822L91.0224 9H93.7627L98.8468 30.2822H95.9087L94.8524 26.1034H89.9002L88.9098 30.2822H85.9383ZM101.95 30.2822V9H104.888V27.626H111.128V30.2822H101.95ZM114.726 30.2822V9H117.665V30.2822H114.726ZM121.329 30.2822V9H124.003L129.781 23.7713V9H132.554V30.2822H129.814L124.103 15.3816V30.2822H121.329ZM136.318 30.2822V9H145V11.5915H139.256V17.8755H144.538V20.4349H139.256V27.626H145V30.2822H136.318Z" fill="#64B804"/>
<path d="M7.174 24.1107C5.34108 24.1155 3.87016 23.9127 2.58579 23.0585C-0.476403 21.0219 -0.414836 17.1279 0.704806 13.9853C2.56342 8.76941 5.64909 7.34711 8.88822 8.11715C10.5157 8.50392 12.2065 9.86797 13.8135 11.5826C13.2302 10.69 12.7857 9.88443 12.5751 9.24603C12.004 7.51554 11.7437 6.06311 12.1645 4.58572C13.1679 1.06281 16.9143 -0.082347 20.2688 0.00454733C25.8363 0.14894 28.1512 2.62506 28.415 5.92334C28.5633 7.77549 27.5677 10.0797 26.2016 12.3711C27.088 11.2122 27.9303 10.2588 28.6288 9.75168C30.1089 8.67771 31.419 7.98274 32.9631 7.92395C36.6454 7.78307 38.8995 10.9693 39.8529 14.1657C41.4351 19.4709 39.7801 22.4233 36.7042 23.6919C35.1536 24.3314 32.9696 24.2126 30.6466 23.7602C31.6384 24.1393 32.468 24.5293 33.0128 24.9203C34.4986 25.9869 35.5686 27.0098 36.1022 28.4508C37.3748 31.8868 35.0212 35.0011 32.2559 36.8897C27.6664 40.0242 24.3286 39.3727 22.1636 36.8583C21.064 35.5809 20.5025 33.4583 20.2198 31.1018C20.1643 32.1798 20.0471 33.1048 19.8376 33.7515C19.2756 35.485 18.627 36.8121 17.4125 37.7616C14.5166 40.0257 10.808 38.7644 8.14555 36.7351C3.72688 33.3673 3.31903 30.0121 5.05692 27.1895C5.9107 25.8029 7.67724 24.6476 9.75401 23.6729C8.73569 23.9421 7.8416 24.1088 7.174 24.1107ZM24.3423 35.0071C26.1746 37.1352 28.6694 35.883 30.6319 34.5426C32.1979 33.4731 34.1795 31.5071 33.4118 29.4344C33.0698 28.5109 32.1844 27.7244 31.4138 27.1712C30.6634 26.6325 25.0324 23.0768 21.7232 22.5965C21.6066 22.5795 21.5413 25.3549 21.8484 27.1522C22.4378 30.6048 23.7758 34.3489 24.3423 35.0071ZM35.6051 21.0614C38.2088 19.9876 37.7808 17.2435 37.1043 14.975C36.5644 13.1648 35.2947 10.6852 33.0731 10.7698C32.0835 10.8075 31.057 11.4012 30.2894 11.9582C29.5415 12.5009 24.3981 16.7228 22.9155 19.7011C22.8632 19.8059 25.5 20.7253 27.3152 20.9904C30.8026 21.5005 34.8001 21.3933 35.6051 21.0614ZM25.5573 6.14908C25.334 3.35719 22.5748 2.91347 20.1941 2.85172C18.2944 2.80254 15.5282 3.2359 14.9229 5.36112C14.6534 6.3079 14.9043 7.46137 15.2003 8.35879C15.4887 9.23291 17.9408 15.3978 20.3337 17.7188C20.418 17.8005 22.1128 15.5934 22.9277 13.9601C24.4937 10.8223 25.6263 7.0123 25.5573 6.14908ZM8.22116 10.887C5.47955 10.2353 4.20202 12.7054 3.4074 14.9358C2.77326 16.7154 2.33343 19.463 4.18076 20.6917C5.00367 21.2389 6.18543 21.3584 7.13591 21.356C8.0618 21.3536 14.721 20.9416 17.6825 19.3979C17.7867 19.3437 16.1975 17.06 14.886 15.7853C12.3662 13.3364 9.06884 11.0886 8.22116 10.887ZM7.50234 28.6758C6.03143 31.0648 8.00097 33.0353 9.89046 34.4753C11.3984 35.6246 13.8926 36.8891 15.6397 35.5234C16.4179 34.9148 16.8973 33.8353 17.1888 32.9362C17.4726 32.0608 19.1362 25.6413 18.5734 22.3662C18.5536 22.2508 15.8766 23.0467 14.2511 23.8922C11.1279 25.5162 7.95734 27.9372 7.50234 28.6758Z" fill="#64B804"/>
</svg>
